HIERARCHY
ROOT hip
{
	OFFSET 0.000000 0.000000 0.000000
	CHANNELS 6 Xposition Yposition Zposition Xrotation Zrotation Yrotation 
	JOINT abdomen
	{
		OFFSET 0.000000 3.422050 0.000000
		CHANNELS 3 Xrotation Zrotation Yrotation 
		JOINT chest
		{
			OFFSET 0.000000 8.486693 -0.684411
			CHANNELS 3 Xrotation Zrotation Yrotation 
			JOINT neck
			{
				OFFSET 0.000000 10.266162 -0.273764
				CHANNELS 3 Xrotation Zrotation Yrotation 
				JOINT head
				{
					OFFSET 0.000000 3.148285 0.000000
					CHANNELS 3 Xrotation Zrotation Yrotation 
					End Site
					{
						OFFSET 0.000000 3.148289 0.000000
					}
				}
			}
			JOINT lCollar
			{
				OFFSET 3.422053 6.707223 -0.821293
				CHANNELS 3 Yrotation Zrotation Xrotation 
				JOINT lShldr
				{
					OFFSET 3.285171 0.000000 0.000000
					CHANNELS 3 Zrotation Yrotation Xrotation 
					JOINT lForeArm
					{
						OFFSET 10.129278 0.000000 0.000000
						CHANNELS 3 Yrotation Zrotation Xrotation 
						JOINT lHand
						{
							OFFSET 8.486692 0.000000 0.000000
							CHANNELS 3 Zrotation Yrotation Xrotation 
							End Site
							{
								OFFSET 4.106464 0.000000 0.000000
							}
						}
					}
				}
			}
			JOINT rCollar
			{
				OFFSET -3.558935 6.707223 -0.821293
				CHANNELS 3 Yrotation Zrotation Xrotation 
				JOINT rShldr
				{
					OFFSET -3.148289 0.000000 0.000000
					CHANNELS 3 Zrotation Yrotation Xrotation 
					JOINT rForeArm
					{
						OFFSET -10.266159 0.000000 0.000000
						CHANNELS 3 Yrotation Zrotation Xrotation 
						JOINT rHand
						{
							OFFSET -8.349810 0.000000 0.000000
							CHANNELS 3 Zrotation Yrotation Xrotation 
							End Site
							{
								OFFSET -4.106464 0.000000 0.000000
							}
						}
					}
				}
			}
		}
	}
	JOINT lThigh
	{
		OFFSET 5.338403 -1.642589 1.368821
		CHANNELS 3 Xrotation Zrotation Yrotation 
		JOINT lShin
		{
			OFFSET -2.053232 -20.121670 0.000000
			CHANNELS 3 Xrotation Zrotation Yrotation 
			JOINT lFoot
			{
				OFFSET 0.000000 -19.300380 -1.231939
				CHANNELS 3 Xrotation Yrotation Zrotation 
				End Site
				{
					OFFSET 0.000000 -2.463878 4.653993
				}
			}
		}
	}
	JOINT rThigh
	{
		OFFSET -5.338403 -1.642589 1.368821
		CHANNELS 3 Xrotation Zrotation Yrotation 
		JOINT rShin
		{
			OFFSET 2.053232 -20.121670 0.000000
			CHANNELS 3 Xrotation Zrotation Yrotation 
			JOINT rFoot
			{
				OFFSET 0.000000 -19.300380 -1.231939
				CHANNELS 3 Xrotation Yrotation Zrotation 
				End Site
				{
					OFFSET 0.000000 -2.463878 4.653993
				}
			}
		}
	}
}
MOTION
Frames: 16
Frame Time: 0.033264
0.000000 43.528500 0.000000 0.000000 0.000000 0.000000 0.000000 0.000000 0.000000 0.000000 0.000000 0.000000 0.000000 0.000000 0.000000 0.000000 0.000000 0.000000 0.000000 0.000000 0.000000 0.000000 0.000000 0.000000 0.000000 0.000000 0.000000 0.000000 0.000000 0.000000 0.000000 0.000000 0.000000 0.000000 0.000000 0.000000 0.000000 0.000000 0.000000 0.000000 0.000000 0.000000 0.000000 0.000000 0.000000 0.000000 0.000000 0.000000 0.000000 0.000000 0.000000 0.000000 0.000000 0.000000 0.000000 0.000000 0.000000 0.000000 0.000000 0.000000 
0.820026 23.148125 1.186478 33.997101 0.000000 0.000000 -15.105532 0.608313 -0.241168 7.215867 0.567730 -1.139850 -0.477362 0.000000 0.000000 -0.571778 0.000000 0.000000 -35.232986 -26.354790 2.462082 -16.236891 -6.013612 -5.510006 -65.055046 -26.736153 -11.671934 18.688452 -0.922181 -26.295279 16.309172 6.536210 -9.230145 19.338243 26.252230 22.655365 19.434071 -1.037153 -0.058350 4.181849 5.333659 -9.758055 -32.215210 11.418559 9.949938 92.359848 1.824184 -0.420058 55.350391 7.192994 -15.364744 -32.215439 -11.444560 -9.975752 92.360268 -1.871522 0.436394 55.545399 -7.166882 15.368848 
0.820026 23.148125 1.383056 32.563168 0.000000 0.000000 -13.454807 0.608508 -0.241107 8.541078 0.567893 -1.139821 -0.948958 0.000000 0.000000 -0.824724 0.000000 0.000000 -35.022518 -25.595083 2.539363 -16.236891 -6.013613 -5.510006 -66.315712 -26.981461 -12.227865 19.899914 -0.953362 -25.932465 15.091342 5.737733 -9.394195 20.010345 27.051685 22.968054 20.282881 -0.945642 -0.044114 3.041400 5.098254 -10.433253 -30.116112 11.338902 9.970804 91.568710 1.756956 -0.442229 55.350391 7.192994 -15.364744 -30.116077 -11.365745 -9.998076 91.569603 -1.804333 0.458477 55.545399 -7.166882 15.368848 
0.820026 23.148125 1.579634 31.125586 0.000000 0.000000 -11.798499 0.608703 -0.241041 9.869161 0.568056 -1.139788 -1.421058 0.000000 0.000000 -1.077877 0.000000 0.000000 -34.814339 -24.834555 2.613138 -16.236891 -6.013612 -5.510006 -67.583771 -27.216137 -12.791846 21.113581 -0.992291 -25.569672 13.869498 4.940754 -9.575537 20.693092 27.848745 23.293995 21.132404 -0.853848 -0.031226 1.901894 4.849005 -11.104739 -28.006033 11.258101 9.988766 90.777039 1.689377 -0.463484 55.350391 7.192995 -15.364746 -28.005745 -11.285740 -10.017534 90.778381 -1.736793 0.479645 55.545399 -7.166882 15.368848 
0.820026 23.148125 1.776212 29.684801 0.000000 0.000000 -10.137270 0.608896 -0.240969 11.199762 0.568218 -1.139750 -1.893648 0.000000 0.000000 -1.331233 0.000000 0.000000 -34.608349 -24.073298 2.683492 -16.236893 -6.013613 -5.510006 -68.858810 -27.439941 -13.363524 22.329109 -1.038981 -25.207155 12.643579 4.145932 -9.774174 21.386843 28.643116 23.633537 21.982548 -0.761801 -0.019692 0.763767 4.586036 -11.772074 -25.886347 11.176315 10.003746 89.984871 1.621466 -0.483816 55.350399 7.192995 -15.364746 -25.885782 -11.204693 -10.034042 89.986694 -1.668922 0.499891 55.545403 -7.166883 15.368848 
0.820026 23.148125 1.972790 28.241255 0.000000 0.000000 -8.471807 0.609087 -0.240892 12.532537 0.568380 -1.139710 -2.366710 0.000000 0.000000 -1.584793 0.000000 0.000000 -34.404457 -23.311380 2.750492 -16.236889 -6.013612 -5.510006 -70.140411 -27.652617 -13.942533 23.546152 -1.093436 -24.845158 11.413506 3.353923 -9.990071 22.092003 29.434530 23.987062 22.833227 -0.669531 -0.009519 -0.372551 4.309493 -12.434815 -23.758417 11.093694 10.015669 89.192322 1.553240 -0.503217 55.350391 7.192994 -15.364744 -23.757580 -11.122758 -10.047527 89.194588 -1.600739 0.519207 55.545399 -7.166883 15.368846 
0.820026 23.148125 2.169368 26.795410 0.000000 0.000000 -6.802793 0.609276 -0.240808 13.867122 0.568541 -1.139665 -2.840232 0.000000 0.000000 -1.838552 0.000000 0.000000 -34.202587 -22.548897 2.814206 -16.236891 -6.013612 -5.510005 -71.428146 -27.853941 -14.528481 24.764372 -1.155647 -24.483942 10.179233 2.565388 -10.223196 22.808941 30.222637 24.354914 23.684353 -0.577069 -0.000712 -1.506641 4.019536 -13.092539 -21.623671 11.010404 10.024478 88.399406 1.484719 -0.521680 55.350391 7.192993 -15.364744 -21.622564 -11.040103 -10.057929 88.402153 -1.532262 0.537586 55.545399 -7.166881 15.368846 
0.820026 23.148125 2.365947 25.347708 0.000000 0.000000 -5.130931 0.609463 -0.240719 15.203157 0.568701 -1.139616 -3.314197 0.000000 0.000000 -2.092509 0.000000 0.000000 -34.002640 -21.785923 2.874707 -16.236891 -6.013612 -5.510006 -72.721519 -28.043682 -15.120950 25.983421 -1.225595 -24.123768 8.940709 1.780990 -10.473487 23.538073 31.007151 24.737490 24.535824 -0.484444 0.006722 -2.638094 3.716355 -13.744823 -19.483562 10.926619 10.030134 87.606232 1.415923 -0.539199 55.350391 7.192994 -15.364744 -19.482182 -10.956891 -10.065204 87.609467 -1.463511 0.555021 55.545399 -7.166882 15.368848 
0.820026 23.148125 2.562525 23.898617 0.000000 0.000000 -3.456926 0.609648 -0.240625 16.540289 0.568860 -1.139564 -3.788588 0.000000 0.000000 -2.346663 0.000000 0.000000 -33.804543 -21.022547 2.932056 -16.236891 -6.013612 -5.510006 -74.020088 -28.221653 -15.719520 27.202951 -1.303248 -23.764875 7.697912 1.001395 -10.740880 24.279781 31.787710 25.135153 25.387566 -0.391688 0.012782 -3.766511 3.400153 -14.391263 -17.339554 10.842503 10.032598 86.812889 1.346871 -0.555768 55.350391 7.192994 -15.364744 -17.337900 -10.873294 -10.069310 86.816582 -1.394505 0.571508 55.545399 -7.166882 15.368848 
0.820026 23.148125 2.759103 22.448605 0.000000 0.000000 -1.781489 0.609830 -0.240525 17.878151 0.569018 -1.139508 -4.263391 0.000000 0.000000 -2.601008 0.000000 0.000000 -33.608219 -20.258850 2.986313 -16.236891 -6.013612 -5.510006 -75.323303 -28.387661 -16.323732 28.422630 -1.388562 -23.407537 6.450815 0.227263 -11.025278 25.034519 32.564037 25.548332 26.239477 -0.298832 0.017462 -4.891506 3.071155 -15.031466 -15.193140 10.758242 10.031857 86.019424 1.277582 -0.571381 55.350391 7.192994 -15.364744 -15.191212 -10.789489 -10.070226 86.023605 -1.325265 0.587041 55.545399 -7.166882 15.368848 
0.820026 23.148125 2.955681 20.998123 0.000000 0.000000 -0.105333 0.610009 -0.240420 19.216373 0.569174 -1.139448 -4.738591 0.000000 0.000000 -2.855546 0.000000 0.000000 -33.413586 -19.494909 3.037539 -16.236895 -6.013613 -5.510006 -76.630699 -28.541534 -16.933128 29.642099 -1.481484 -23.051983 5.199419 -0.540748 -11.326572 25.802685 33.335754 25.977404 27.091467 -0.205906 0.020762 -6.012711 2.729604 -15.665056 -13.045806 10.674005 10.027898 85.225929 1.208078 -0.586034 55.350391 7.192995 -15.364746 -13.043604 -10.705647 -10.067944 85.230568 -1.255809 0.601614 55.545399 -7.166882 15.368848 
0.820026 23.148125 3.152259 19.547644 0.000000 0.000000 1.570822 0.610184 -0.240309 20.554600 0.569329 -1.139385 -5.214170 0.000000 0.000000 -3.110271 0.000000 0.000000 -33.220570 -18.730806 3.085787 -16.236889 -6.013612 -5.510006 -77.941734 -28.683130 -17.547224 30.861021 -1.581949 -22.698477 3.943731 -1.301985 -11.644638 26.584715 34.102524 26.422789 27.943455 -0.112941 0.022679 -7.129763 2.375757 -16.291660 -10.899058 10.589973 10.020733 84.432472 1.138378 -0.599723 55.350388 7.192995 -15.364744 -10.896586 -10.621949 -10.062468 84.437584 -1.186159 0.615224 55.545395 -7.166882 15.368846 
0.820026 23.148125 3.348837 18.097628 0.000000 0.000000 3.246259 0.610357 -0.240194 21.892462 0.569483 -1.139318 -5.690112 0.000000 0.000000 -3.365183 0.000000 0.000000 -33.029102 -17.966631 3.131113 -16.236891 -6.013612 -5.510006 -79.255852 -28.812313 -18.165527 32.079071 -1.689878 -22.347265 2.683781 -2.055798 -11.979325 27.381071 34.864017 26.884922 28.795334 -0.019968 0.023214 -8.242318 2.009895 -16.910934 -8.754397 10.506324 10.010381 83.639130 1.068501 -0.612443 55.350391 7.192993 -15.364744 -8.751661 -10.538573 -10.053817 83.644707 -1.116333 0.627868 55.545399 -7.166882 15.368848 
0.820026 23.148125 3.545415 16.648535 0.000000 0.000000 4.920265 0.610526 -0.240073 23.229593 0.569634 -1.139248 -6.166403 0.000000 0.000000 -3.620279 0.000000 0.000000 -32.839111 -17.202459 3.173565 -16.236891 -6.013612 -5.510006 -80.572495 -28.928972 -18.787531 33.295891 -1.805184 -21.998577 1.419609 -2.801552 -12.330465 28.192183 35.619846 27.364220 29.647030 0.072982 0.022367 -9.350054 1.632307 -17.522545 -6.613307 10.423228 9.996877 82.845955 0.998468 -0.624192 55.350391 7.192994 -15.364744 -6.610304 -10.455685 -10.042016 82.852020 -1.046353 0.639541 55.545399 -7.166882 15.368848 
0.820026 23.148125 3.741993 15.200844 0.000000 0.000000 6.592127 0.610691 -0.239948 24.565632 0.569784 -1.139174 -6.643024 0.000000 0.000000 -3.875556 0.000000 0.000000 -32.650528 -16.438372 3.213193 -16.236891 -6.013612 -5.510006 -81.891106 -29.033010 -19.412710 34.511158 -1.927767 -21.652651 0.151279 -3.538615 -12.697869 29.018509 36.369659 27.861116 30.498444 0.165877 0.020140 -10.452649 1.243302 -18.126167 -4.477267 10.340863 9.980270 82.053055 0.928300 -0.634967 55.350391 7.192994 -15.364744 -4.474005 -10.373466 -10.027118 82.059601 -0.976239 0.650241 55.545399 -7.166882 15.368848 
0.820026 23.148125 3.938571 13.754990 0.000000 0.000000 8.261140 0.610852 -0.239819 25.900217 0.569933 -1.139096 -7.119964 0.000000 0.000000 -4.131013 0.000000 0.000000 -32.463284 -15.674455 3.250046 -16.236891 -6.013612 -5.510006 -83.211113 -29.124350 -20.040545 35.724545 -2.057523 -21.309719 -1.121132 -4.266371 -13.081332 29.860525 37.113091 28.376060 31.349480 0.258688 0.016534 -11.549812 0.843199 -18.721504 -2.347725 10.259388 9.960618 81.260498 0.858017 -0.644766 55.350391 7.192994 -15.364744 -2.344206 -10.292071 -10.009168 81.267502 -0.906010 0.659967 55.545403 -7.166883 15.368848 
